<svg id="Calque_1" data-name="Calque 1" xmlns="http://www.w3.org/2000/svg" viewBox="0 0 1920 1080"><defs><style>.cls-1,.cls-2{fill:#666;}.cls-2,.cls-4{stroke:#666;stroke-miterlimit:10;}.cls-3{fill:#c59e00;}.cls-4{fill:none;stroke-width:40px;}</style></defs><path class="cls-1" d="M214.68,571.52H244c16.8,0,31.2,6.24,31.2,25.92,0,19.08-14.88,27.36-31.2,27.36h-8.64v24.72H214.68Zm28.32,37c8.16,0,12-4.08,12-11s-4.32-9.6-12-9.6h-7.68v20.64Z"/><path class="cls-1" d="M285,619.52c0-19.68,15.36-31.44,31.44-31.44,19,0,28.56,13,28.56,29a54.28,54.28,0,0,1-.84,8.64H300.6V612.32h29.28l-2.88,3.6c0-7.92-3.12-12.24-9.84-12.24-7.92,0-12.24,5-12.24,15.84,0,11.28,5.52,15.84,16.56,15.84,4.8,0,9.12-1.2,14.4-3.6L342.6,644a47.6,47.6,0,0,1-24,7C299.64,651,285,639.44,285,619.52Z"/><path class="cls-1" d="M363.48,589.52H380.4L382,602.24h.48c5.76-9.84,14.39-14.16,23.39-14.16a24.39,24.39,0,0,1,11.4,2.4l-4.08,17.28a31.7,31.7,0,0,0-10.44-1.68c-6.83,0-14.15,3.6-18.59,13.68v29.76H363.48Z"/><path class="cls-1" d="M428.52,641.84l8.64-12.72a47.11,47.11,0,0,0,23.51,6.72c5.28,0,7.44-1.44,7.44-3.6,0-2.88-3.12-3.36-13.19-5.52-16.56-3.6-22.56-9.84-22.56-19.2,0-11.76,11.16-19.44,28.56-19.44,11.27,0,20.27,4.44,26.63,8.4l-9.12,12.24A39.9,39.9,0,0,0,459,603.2c-3.84,0-6.25,1.2-6.25,3.36,0,2.64,3.13,2.88,12.48,5,18,4.08,23.28,9.48,23.28,19.44,0,11.28-10.68,19.92-30.72,19.92C447.48,651,436.2,646.88,428.52,641.84Z"/><path class="cls-1" d="M526.67,605.6H503.88V589.52h43.43v60H526.67Zm-3.6-36.24c0-7.2,5.52-12.24,13.2-12.24s13.2,5,13.2,12.24-5.52,12-13.2,12S523.07,576.56,523.07,569.36Z"/><path class="cls-1" d="M572.51,641.84l8.64-12.72a47.12,47.12,0,0,0,23.52,6.72c5.28,0,7.44-1.44,7.44-3.6,0-2.88-3.12-3.36-13.2-5.52-16.56-3.6-22.56-9.84-22.56-19.2,0-11.76,11.16-19.44,28.56-19.44,11.28,0,20.28,4.44,26.64,8.4l-9.12,12.24A39.91,39.91,0,0,0,603,603.2c-3.84,0-6.24,1.2-6.24,3.36,0,2.64,3.12,2.88,12.48,5,18,4.08,23.28,9.48,23.28,19.44,0,11.28-10.68,19.92-30.72,19.92C591.47,651,580.19,646.88,572.51,641.84Z"/><path class="cls-1" d="M658.43,624.08V605.6H644V590.24l15.36-.72,2.64-18h17v18h23.76V605.6H679.07v18.12c0,8.52,4,11.16,11.64,11.16A34.05,34.05,0,0,0,701.63,633l3.6,14.88A72.2,72.2,0,0,1,685.31,651C665.63,651,658.43,640.16,658.43,624.08Z"/><path class="cls-1" d="M717,619.52c0-19.68,15.36-31.44,31.44-31.44,19,0,28.56,13,28.56,29a54.28,54.28,0,0,1-.84,8.64H732.59V612.32h29.28l-2.88,3.6c0-7.92-3.12-12.24-9.84-12.24-7.92,0-12.24,5-12.24,15.84,0,11.28,5.52,15.84,16.56,15.84,4.8,0,9.12-1.2,14.4-3.6L774.59,644a47.6,47.6,0,0,1-24,7C731.63,651,717,639.44,717,619.52Z"/><path class="cls-1" d="M790.67,589.52h16.8l1.44,7.2h.48c4.8-4.56,11.28-8.64,20-8.64,13.32,0,19.08,9.6,19.08,24.48v37H827.87V615.2c0-6.72-1.68-9.6-7-9.6-3.84,0-6.48,1.68-9.6,4.56v39.36H790.67Z"/><path class="cls-1" d="M874.43,624.08V605.6H860V590.24l15.36-.72,2.64-18h17v18h23.76V605.6H895.07v18.12c0,8.52,4,11.16,11.64,11.16A34.05,34.05,0,0,0,917.63,633l3.6,14.88A72.2,72.2,0,0,1,901.31,651C881.63,651,874.43,640.16,874.43,624.08Z"/><path class="cls-1" d="M504,714.51h29.28c16.8,0,31.2,6.24,31.2,25.92,0,19.08-14.88,27.36-31.2,27.36h-8.64v24.72H504Zm28.32,37c8.16,0,12-4.08,12-11s-4.32-9.6-12-9.6h-7.68v20.64Z"/><path class="cls-1" d="M574.78,775.47c0-13.44,10.56-20.4,37.92-21.84-.72-4.32-4.8-6.24-11.52-6.24-5,0-10.08,1.68-17.28,5L576.7,739c9.12-5,18.48-7.92,28.56-7.92,17,0,28.07,8.4,28.07,28.08v33.36H616.54l-1.44-6.24h-.48c-5.88,4.32-13,7.68-20.4,7.68C581.74,794,574.78,785.31,574.78,775.47Zm37.92-1.92v-7.68c-14.64.48-18.24,3.84-18.24,7.92,0,2.76,2.16,4.32,6.48,4.32C605.74,778.11,609.46,776,612.7,773.55Z"/><path class="cls-1" d="M652.78,732.51h16.91l1.56,12.72h.48c5.76-9.84,14.4-14.16,23.4-14.16a24.42,24.42,0,0,1,11.4,2.4l-4.08,17.28A31.74,31.74,0,0,0,692,749.07c-6.84,0-14.16,3.6-18.6,13.68v29.76H652.78Z"/><path class="cls-1" d="M718.77,775.47c0-13.44,10.56-20.4,37.92-21.84-.72-4.32-4.8-6.24-11.52-6.24-5,0-10.08,1.68-17.28,5L720.69,739c9.12-5,18.48-7.92,28.56-7.92,17,0,28.08,8.4,28.08,28.08v33.36h-16.8l-1.44-6.24h-.48c-5.88,4.32-13,7.68-20.4,7.68C725.73,794,718.77,785.31,718.77,775.47Zm37.92-1.92v-7.68c-14.64.48-18.24,3.84-18.24,7.92,0,2.76,2.16,4.32,6.48,4.32C749.73,778.11,753.45,776,756.69,773.55Z"/><path class="cls-1" d="M789.33,762.51c0-19.68,12.48-31.44,25.08-31.44a17.66,17.66,0,0,1,14,6h.48l-1-8.64V709h20.64v83.52h-16.8L830.37,787h-.48c-4.2,4.08-10.08,7-15.48,7C799.17,794,789.33,782,789.33,762.51ZM828,772.83V750.75a11.2,11.2,0,0,0-7.92-2.88c-5,0-9.6,3.84-9.6,14.4,0,10.8,3.48,14.88,9.36,14.88A8.81,8.81,0,0,0,828,772.83Z"/><path class="cls-1" d="M861.33,762.51c0-19.92,15.12-31.44,31-31.44s31,11.52,31,31.44S908.13,794,892.29,794,861.33,782.43,861.33,762.51Zm40.8,0c0-9.12-2.88-14.88-9.84-14.88s-9.84,5.76-9.84,14.88,2.88,14.88,9.84,14.88S902.13,771.63,902.13,762.51Z"/><path class="cls-1" d="M951.57,761.31l-18.84-28.8h22.08l4.92,8.4c1.68,3.36,4.08,7,5.88,10.32h.48c1.32-3.36,3-7,4.32-10.32l4-8.4h21.48l-19,31.2,20,28.8H974.85l-5.52-8.4c-2-3.36-4.44-7-6.48-10.32h-.48c-1.56,3.36-3.36,6.84-4.92,10.32l-4.44,8.4H931.53Z"/><path class="cls-1" d="M792,858.51h29.28c16.8,0,31.2,6.24,31.2,25.92,0,19.08-14.88,27.36-31.2,27.36h-8.64v24.72H792Zm28.32,37c8.16,0,12-4.08,12-11s-4.32-9.6-12-9.6h-7.68v20.64Z"/><path class="cls-1" d="M879.1,911.79V869.07h-18V853h38.64v59.52c0,7,4.8,8.88,9,8.88a25.94,25.94,0,0,0,8.64-1.68l4.43,15.12C915.33,936.75,911,938,903.22,938,887.26,938,879.1,927.39,879.1,911.79Z"/><path class="cls-1" d="M934.3,906.51c0-19.68,15.36-31.44,31.43-31.44,19,0,28.56,13,28.56,29a54.28,54.28,0,0,1-.84,8.64H949.9V899.31h29.27l-2.88,3.6c0-7.92-3.12-12.24-9.84-12.24-7.92,0-12.24,5-12.24,15.84,0,11.28,5.52,15.84,16.56,15.84,4.8,0,9.12-1.2,14.4-3.6L991.89,931a47.6,47.6,0,0,1-24,7C948.94,938,934.3,926.43,934.3,906.51Z"/><path class="cls-1" d="M1023.57,905.31l-18.84-28.8h22.08l4.92,8.4c1.68,3.36,4.08,7,5.88,10.32h.48c1.32-3.36,3-7,4.32-10.32l4-8.4h21.48l-19,31.2,20,28.8h-22.08l-5.52-8.4c-2-3.36-4.44-7-6.48-10.32h-.48c-1.56,3.36-3.36,6.84-4.92,10.32l-4.44,8.4h-21.47Z"/><ellipse class="cls-1" cx="536" cy="536" rx="47" ry="46"/><path class="cls-2" d="M1113.41,512.88l-66.77-28.42a13.79,13.79,0,0,1-3.3-23.38l31.08-25.29,27.66-22.49a13.79,13.79,0,0,1,22.41,9.25l8,76.2A13.78,13.78,0,0,1,1113.41,512.88Z"/><path class="cls-3" d="M1643,559h-4.22c-20.71-41.33-64.84-69.87-115.93-69.87a131.74,131.74,0,0,0-76.66,24.27C1429,464.9,1381,430,1324.5,430c-71,0-128.5,55.07-128.5,123q0,3.27.18,6.5A117,117,0,0,0,1090,676h0a117,117,0,0,0,117,117h436a117,117,0,0,0,117-117h0A117,117,0,0,0,1643,559Z"/><path class="cls-4" d="M535.77,534c-7.56-96.39,13-160.83,28.93-197.19C659.55,120.94,986.76,123.51,1151.29,153A744.23,744.23,0,0,1,1287,191"/><path class="cls-4" d="M1287,191c-72,60.7-137.21,92.5-185.83,110.47-37.47,13.85-72.87,22.36-80.22,47.84-9.14,31.7,30.39,71.42,68,101.69"/><path class="cls-4" d="M1285,190c38.29,11,69.5,22.23,92,31,38.81,15.12,61.11,27.05,81,48,36.63,38.58,41.44,91.31,41,122"/><path class="cls-4" d="M1707,468c13.75-27.4,56.41-118.91,17-171-21.34-28.2-58-33.24-77-36-90.31-13.07-205.63-35.55-360-70"/><ellipse class="cls-3" cx="1285" cy="187" rx="47" ry="46"/><path class="cls-2" d="M1460.1,440.86l-12.67-71.45a13.79,13.79,0,0,1,17.78-15.54l38.16,12.23,34,10.87a13.78,13.78,0,0,1,4.5,23.82l-59.45,48.36A13.78,13.78,0,0,1,1460.1,440.86Z"/><path class="cls-2" d="M1642.47,500.92l24.34-68.37a13.79,13.79,0,0,1,23.14-4.71l27.11,29.5,24.13,26.24a13.79,13.79,0,0,1-7.88,22.93l-75.58,12.63A13.79,13.79,0,0,1,1642.47,500.92Z"/></svg>